<?xml version="1.0" encoding="utf-8"?>
<!-- Generator: Adobe Illustrator 22.1.0, SVG Export Plug-In . SVG Version: 6.00 Build 0)  -->
<svg version="1.1" id="Ebene_1" xmlns="http://www.w3.org/2000/svg" xmlns:xlink="http://www.w3.org/1999/xlink" x="0px" y="0px"
	 viewBox="0 0 195.7 141.7" style="enable-background:new 0 0 195.7 141.7;" xml:space="preserve">
<style type="text/css">
	.st0{fill:#1D1D1B;}
	.st1{fill:#FFFFFF;}
</style>
<path class="st0" d="M70.9,141.7c39.1,0,70.9-31.7,70.9-70.9C141.7,31.7,110,0,70.9,0S0,31.7,0,70.9S31.7,141.7,70.9,141.7
	L70.9,141.7z"/>
<path class="st1" d="M85.7,69.7h17.5v38.2c0,5.6,0.8,9.7,2.5,12.2c1.7,2.5,4.3,3.7,8,3.7c3.8,0,6.6-1.3,8.5-4
	c1.9-2.7,2.9-6.6,2.9-11.9V69.7h16.7v38.2c0,9.7-2.3,16.9-7,21.7c-4.7,4.8-11.7,7.2-21,7.2c-9.3,0-16.3-2.4-21-7.3
	c-4.7-4.9-7.1-12.1-7.1-21.7L85.7,69.7L85.7,69.7z"/>
<path class="st0" d="M158.9,81.2V98h6.1c3.8,0,6.6-0.7,8.5-2.1s2.8-3.4,2.8-6.2c0-2.9-1.1-5.1-3.2-6.5c-2.1-1.4-5.4-2.1-10-2.1
	L158.9,81.2L158.9,81.2z M141.7,69.6h26.1c8.7,0,15.1,1.4,19.3,4.2c4.2,2.8,6.3,7.1,6.3,12.9c0,4.3-1.1,7.7-3.3,10.5
	c-2.2,2.7-5.4,4.6-9.6,5.5c3.4,1.3,6.2,4.8,8.3,10.8v0l7.9,21.8h-18.2l-5.8-18c-0.9-2.9-2.2-4.9-3.8-6c-1.6-1.1-4.1-1.7-7.5-1.7
	h-2.5v25.6h-17.1L141.7,69.6L141.7,69.6z"/>
</svg>
